<?xml version="1.0" encoding="UTF-8"?>
<!DOCTYPE svg PUBLIC "-//W3C//DTD SVG 1.1//EN" "http://www.w3.org/Graphics/SVG/1.1/DTD/svg11.dtd">
<!-- Creator: CorelDRAW -->
<svg xmlns="http://www.w3.org/2000/svg" xml:space="preserve" width="210mm" height="205mm" style="shape-rendering:geometricPrecision; text-rendering:geometricPrecision; image-rendering:optimizeQuality; fill-rule:evenodd; clip-rule:evenodd"
viewBox="0 0 210 205"
 xmlns:xlink="http://www.w3.org/1999/xlink">
 <defs>
  <style type="text/css">
   <![CDATA[
    .str0 {stroke:#969594;stroke-width:0.0762}
    .fil0 {fill:white}
    .fil2 {fill:#7BBECE}
    .fil3 {fill:#838A99}
    .fil1 {fill:#EFD99A}
   ]]>
  </style>
 </defs>
 <g id="Layer_x0020_1">
  <metadata id="CorelCorpID_0Corel-Layer"/>
  <polygon class="fil0" points="144.637,57.3467 171.029,72.9574 169.812,83.9218 142.231,69.0211 "/>
  <polygon class="fil0" points="55.041,29.5829 150.201,29.5829 150.201,41.8951 115.77,41.8951 81.6956,41.3034 55.1599,34.7022 "/>
  <path class="fil1 str0" d="M85.5339 40.5563l0 -7.9935 -27.7095 0 0 2.4786c2.286,0.3838 5.5764,1.0471 9.8368,1.9195 2.4938,0.6283 6.4424,1.8152 11.8806,3.5954l5.9921 0zm31.6585 0l0 -7.9935 -29.4416 0 0 7.9935 29.4416 0zm31.9351 24.1196c0,-3.2115 -0.8313,-4.7823 -2.5283,-4.7823 -1.6973,0 -2.5286,1.5708 -2.5286,4.7823 0,3.2111 0.8313,4.8169 2.5286,4.8169 1.697,0 2.5283,-1.6058 2.5283,-4.8169zm10.4606 7.0506c0,-2.862 -0.7621,-4.2933 -2.3208,-4.2933 -1.5587,0 -2.3552,1.4313 -2.3552,4.2933 0,2.9321 0.7965,4.398 2.3552,4.398 1.5587,0 2.3208,-1.4659 2.3208,-4.398zm9.4559 6.0389c0,-2.653 -0.7621,-3.9793 -2.2517,-3.9793 -1.4199,0 -2.1125,1.3263 -2.1125,3.9793 0,2.6524 0.6926,3.9791 2.1125,3.9791 1.4896,0 2.2517,-1.3267 2.2517,-3.9791zm-20.0896 -37.2091l0 -7.9935 -28.8181 0 0 7.9935 28.8181 0zm4.7451 -11.9726l0 14.835 -16.0366 0 0 31.3796c-17.0415,-10.6113 -29.026,-18.1158 -35.9189,-22.4788 -13.7854,-8.7265 -29.7186,-14.2413 -47.7991,-16.5801l0 -8.6914c19.2931,-1.3614 35.2259,-2.0247 47.7991,-1.9546 13.1276,0.1393 30.4459,1.3263 51.9555,3.4903zm23.9691 64.0163c-8.0011,-2.5829 -14.9632,-5.2008 -20.9209,-7.8888 -4.3295,-1.9546 -9.9407,-4.8169 -16.8336,-8.5867l0 -29.1455 32.6629 25.0616 0 8.5867 5.0916 3.9095 0 8.0632zm-46.7947 -67.6814c-6.8234,-0.5582 -12.712,-0.977 -17.5958,-1.2566 -4.9182,-0.2441 -11.0489,-0.3141 -18.4266,-0.1744l7.3081 -18.9184c1.3509,-2.0597 3.9834,-3.0368 7.8973,-2.9671 6.7198,0.1744 12.8158,2.6875 18.2883,7.4348l2.5287 15.8817zm37.3388 41.1883l-19.1892 -14.5204 13.4046 0 0 -15.9519 -6.9964 -8.6913 -17.2493 -1.5357 1.7317 -3.9793c1.0044,-1.501 2.667,-2.2691 4.953,-2.2691 3.3252,0 6.3042,0.733 8.9364,2.1644 2.6325,1.431 5.542,3.8745 8.7285,7.3648l5.6807 26.9819 0 10.4366zm-7.6894 -16.5451l-14.028 0 -5.5768 -4.119 14.8249 0 0 -15.0089 4.7799 5.7243 0 13.4036z"/>
  <path class="fil2" d="M208.911 204.367l-207.822 0 0 -97.3508 47.7991 0 1.42 28.3433c-4.2603,-3.7698 -8.1742,-5.8641 -11.7763,-6.3531 -2.9095,-0.3488 -5.8886,0.2094 -8.9364,1.6408 -2.7017,1.431 -5.369,2.8273 -8.0011,4.1886 -1.6282,0.8027 -3.0134,1.152 -4.1565,1.0121 -3.1868,-0.1397 -6.8581,-0.9074 -10.9802,-2.3387l0 3.1764c3.1869,1.2917 6.9277,2.0593 11.2572,2.3389 1.6974,0.0697 4.8838,-1.222 9.5598,-3.8746 4.3991,-2.4785 8.1051,-3.4905 11.1533,-3.0717 5.3338,0.6633 9.5942,3.8394 12.6771,9.4941l0.8313 11.8679c9.8716,-10.9601 20.5744,-16.964 32.0738,-17.976 2.0091,-0.1398 8.3476,1.1864 18.9466,3.9791 11.1876,2.9321 20.1587,4.328 27.0168,4.1887 6.0613,-0.2094 14.582,-1.3964 25.4583,-3.5954l0 -2.9671c-10.6337,2.4084 -19.2931,3.5954 -25.9778,3.5954 -7.5164,0 -17.7344,-1.8499 -30.6538,-5.515l19.3966 0.1048c11.2916,-0.2795 21.7522,-1.8502 31.3464,-4.7122 13.6123,-4.154 26.3243,-9.1103 38.1701,-14.835 0.277,-0.9424 0.6583,-2.4085 1.2122,-4.3981 0.2774,-1.0817 0.5543,-2.5131 0.9008,-4.2932l19.0849 0 0 97.3508z"/>
  <path class="fil3" d="M188.822 97.5215c-0.0692,3.8048 -0.3117,6.9112 -0.7274,9.2847 -0.45,3.0022 -1.0735,5.5499 -1.8008,7.6793 -10.7724,5.096 -22.8261,9.4594 -36.2306,13.0894 -11.7764,3.2112 -23.484,4.817 -35.122,4.817 -17.4571,0 -27.8134,0.1397 -31.0346,0.3837 -11.6381,1.1173 -21.6135,5.8295 -29.9612,14.2414l-4.1564 -60.8744c-1.1431,-16.1963 -4.5721,-32.7414 -10.2525,-49.5655 12.5385,-0.5586 26.5665,2.199 42.1188,8.2725 8.9363,3.4556 20.1587,9.5291 33.7015,18.1855 16.1758,10.4369 27.1208,17.1387 32.8707,20.0708 12.6424,6.3876 26.1856,11.2045 40.5945,14.4156zm-141.146 -5.5498c-1.6282,-4.8867 -4.9534,-11.3093 -9.9411,-19.1981 -5.7495,-9.1448 -9.0055,-16.4403 -9.7677,-21.8855 -0.0691,-0.698 -0.1039,-1.3613 -0.1039,-2.0593 0,-5.7944 2.8056,-9.8082 8.3477,-12.0773 4.0525,10.5066 6.962,21.5368 8.7285,33.0555 1.0043,6.5971 1.9052,13.9968 2.7365,22.1647z"/>
 </g>
</svg>
